<svg xmlns="http://www.w3.org/2000/svg" width="1200" height="1200" viewBox="0 0 1200 1200" fill="none">
  <defs>
    <linearGradient id="bg" x1="0" y1="0" x2="1" y2="1">
      <stop offset="0%" stop-color="#0B0B0C"/>
      <stop offset="55%" stop-color="#111214"/>
      <stop offset="100%" stop-color="#1A1B1E"/>
    </linearGradient>
    <radialGradient id="glow" cx="0.2" cy="0.15" r="0.8">
      <stop offset="0%" stop-color="#1F2126" stop-opacity="0.7"/>
      <stop offset="45%" stop-color="#131418" stop-opacity="0.35"/>
      <stop offset="100%" stop-color="#0B0B0C" stop-opacity="0"/>
    </radialGradient>
    <radialGradient id="vignette" cx="0.5" cy="0.5" r="0.75">
      <stop offset="60%" stop-color="#0B0B0C" stop-opacity="0"/>
      <stop offset="100%" stop-color="#000000" stop-opacity="0.55"/>
    </radialGradient>
    <filter id="blur" x="-30%" y="-30%" width="160%" height="160%">
      <feGaussianBlur stdDeviation="14"/>
    </filter>
    <filter id="grain" x="0" y="0" width="100%" height="100%">
      <feTurbulence type="fractalNoise" baseFrequency="0.8" numOctaves="2" seed="7" result="noise"/>
      <feColorMatrix type="matrix" values="
        1 0 0 0 0
        0 1 0 0 0
        0 0 1 0 0
        0 0 0 0.12 0" />
    </filter>
    <linearGradient id="streak" x1="0" y1="0" x2="1" y2="0">
      <stop offset="0%" stop-color="#F7F8FA" stop-opacity="0"/>
      <stop offset="45%" stop-color="#F7F8FA" stop-opacity="0.2"/>
      <stop offset="55%" stop-color="#F7F8FA" stop-opacity="0.2"/>
      <stop offset="100%" stop-color="#F7F8FA" stop-opacity="0"/>
    </linearGradient>
  </defs>

  <rect width="1200" height="1200" fill="url(#bg)"/>
  <rect width="1200" height="1200" fill="url(#glow)"/>

  <g filter="url(#blur)" opacity="0.6">
    <path d="M-100 300 C 200 240, 380 260, 680 180 C 900 120, 1080 110, 1300 40" stroke="url(#streak)" stroke-width="42" fill="none"/>
    <path d="M-120 640 C 160 580, 380 620, 720 540 C 980 480, 1120 470, 1320 420" stroke="url(#streak)" stroke-width="30" fill="none"/>
    <path d="M-80 940 C 200 880, 420 900, 760 820 C 980 770, 1120 760, 1320 700" stroke="url(#streak)" stroke-width="18" fill="none"/>
  </g>

  <g opacity="0.35">
    <circle cx="240" cy="900" r="180" fill="#14161B"/>
    <circle cx="940" cy="260" r="140" fill="#121419"/>
    <circle cx="860" cy="820" r="220" fill="#0F1013"/>
  </g>

  <rect width="1200" height="1200" fill="url(#vignette)"/>
  <rect width="1200" height="1200" filter="url(#grain)" opacity="0.35"/>
</svg>
